<svg width="101" height="38" viewBox="0 0 101 38" fill="none" xmlns="http://www.w3.org/2000/svg">
<g filter="url(#filter0_dd_28_3673)">
<g clip-path="url(#clip0_28_3673)">
<path d="M3 14.8C3 10.3196 3 8.07937 3.87195 6.36808C4.63893 4.86278 5.86278 3.63893 7.36808 2.87195C9.07937 2 11.3196 2 15.8 2H22.2C26.6804 2 28.9206 2 30.6319 2.87195C32.1372 3.63893 33.3611 4.86278 34.1281 6.36808C35 8.07937 35 10.3196 35 14.8V21.2C35 25.6804 35 27.9206 34.1281 29.6319C33.3611 31.1372 32.1372 32.3611 30.6319 33.1281C28.9206 34 26.6804 34 22.2 34H15.8C11.3196 34 9.07937 34 7.36808 33.1281C5.86278 32.3611 4.63893 31.1372 3.87195 29.6319C3 27.9206 3 25.6804 3 21.2V14.8Z" fill="#4D7C0F"/>
<path fill-rule="evenodd" clip-rule="evenodd" d="M3.00032 6.00001C3.00032 3.79088 4.79118 2.00001 7.00032 2.00001C7.00032 2.00001 8.00098 1.99998 11.0003 2.00001C13.9997 2.00004 16.4998 14.5 16 16C15.5002 17.5 3.00062 26.5 3.00032 26C3.00001 25.5 3.00032 18 3.00032 18V14V10V6.00001ZM19.0003 23.3333C17.0003 22 7.00005 31 5.50018 32.5C4.00032 34 3.00032 34 3.00032 34H7.00032H11.0003H15.0003H19.0003C19.0003 34 21.001 34 23.0003 34C24.9997 34 21.0003 24.6667 19.0003 23.3333ZM31.0003 34C33.2095 34 35.0003 32.2092 35.0003 30V26V22V18V14V10V6.00001C35.0003 3.79087 33.2095 2.00001 31.0003 2.00001H27.0003H23.0003H18.5002C19.5002 5 23.5001 13.5 24.0002 16C24.5003 18.5 28.3292 34 31.0003 34Z" fill="#A3E635"/>
</g>
</g>
<path d="M53.5418 25.6V24.7467C52.9605 25.6711 52.212 26.3644 51.296 26.8267C50.3801 27.2889 49.3673 27.52 48.2577 27.52C47.2713 27.52 46.373 27.2978 45.5628 26.8533C44.7702 26.4089 44.1449 25.7511 43.6869 24.88C43.229 23.9911 43 22.88 43 21.5467V10.4C43 9.68889 43.3523 9.33333 44.0568 9.33333H45.7742C46.4787 9.33333 46.831 9.68889 46.831 10.4V19.9467C46.831 21.3156 47.06 22.2844 47.5179 22.8533C47.9935 23.4044 48.6628 23.68 49.5259 23.68C50.2304 23.68 50.8821 23.5289 51.481 23.2267C52.0975 22.9067 52.5907 22.4444 52.9605 21.84C53.348 21.2356 53.5418 20.5156 53.5418 19.68V10.9333C53.5418 10.2222 53.8941 9.86667 54.5986 9.86667H56.316C57.0205 9.86667 57.3728 10.2222 57.3728 10.9333V25.6C57.3728 26.3111 57.0205 26.6667 56.316 26.6667H54.5986C53.8941 26.6667 53.5418 26.3111 53.5418 25.6Z" fill="#0C0A09"/>
<path d="M65.0254 23.36C65.8709 23.36 66.5666 23.1111 67.1126 22.6133C67.6763 22.1156 67.9581 21.3689 67.9581 20.3733C67.9581 19.5022 67.7203 18.7911 67.2447 18.24C66.7692 17.6889 66.1263 17.4133 65.316 17.4133C64.8052 17.4133 64.3561 17.5111 63.9686 17.7067C63.5987 17.8844 63.2817 18.1511 63.0175 18.5067C62.7709 18.8622 62.5947 19.2978 62.489 19.8133C62.4538 19.9911 62.4274 20.1778 62.4098 20.3733C62.3922 20.5511 62.3834 20.7467 62.3834 20.96V22.8267C62.7885 23.0044 63.2024 23.1378 63.6251 23.2267C64.0479 23.3156 64.5146 23.36 65.0254 23.36ZM61.3265 27.7333C61.1504 27.7333 60.9743 27.7333 60.7981 27.7333C60.622 27.7333 60.4459 27.7333 60.2697 27.7333H59.7413C59.618 27.7333 59.5035 27.7244 59.3978 27.7067C59.3098 27.6889 59.2305 27.6622 59.1601 27.6267C58.843 27.4667 58.6845 27.1467 58.6845 26.6667V9.06667C58.6845 8.94222 58.6933 8.83556 58.7109 8.74667C58.7285 8.64 58.7549 8.55111 58.7902 8.48C58.9487 8.16 59.2657 8 59.7413 8H61.3265C61.8021 8 62.1192 8.16 62.2777 8.48C62.3129 8.55111 62.3393 8.64 62.3569 8.74667C62.3746 8.83556 62.3834 8.94222 62.3834 9.06667V15.0667C62.8413 14.5689 63.3873 14.1956 64.0214 13.9467C64.6731 13.68 65.3601 13.5467 66.0822 13.5467C67.1038 13.5467 68.0374 13.8311 68.8828 14.4C69.7283 14.9511 70.3976 15.7422 70.8908 16.7733C71.4016 17.7867 71.657 18.9867 71.657 20.3733C71.657 20.4978 71.6482 20.6311 71.6306 20.7733C71.6306 20.8978 71.6306 21.0222 71.6306 21.1467C71.5249 22.3911 71.1814 23.4667 70.6002 24.3733C70.0189 25.28 69.2615 25.9822 68.328 26.48C67.4121 26.96 66.3993 27.2 65.2896 27.2C64.7964 27.2 64.3033 27.1556 63.8101 27.0667C63.3169 26.9778 62.8413 26.8533 62.3834 26.6933C62.3834 27.0311 62.2953 27.2889 62.1192 27.4667C61.943 27.6444 61.6788 27.7333 61.3265 27.7333Z" fill="#0C0A09"/>
<path d="M82.386 28H80.2723C79.7439 28 79.4797 27.7333 79.4797 27.2V26.0533C79.0746 26.4622 78.5814 26.7911 78.0001 27.04C77.4189 27.2889 76.8376 27.44 76.2564 27.4933C76.0979 27.5111 75.9482 27.52 75.8072 27.52C74.9089 27.52 74.1075 27.3333 73.403 26.96C72.716 26.5689 72.1788 26.0444 71.7913 25.3867C71.4038 24.7111 71.2101 23.9556 71.2101 23.12C71.2101 22.3378 71.3774 21.6178 71.7121 20.96C72.0643 20.3022 72.6192 19.7778 73.3766 19.3867C74.1339 18.9778 75.1203 18.7733 76.3357 18.7733C76.8464 18.7733 77.3749 18.8356 77.9209 18.96C78.4669 19.0844 78.9865 19.2533 79.4797 19.4667C79.4797 19.3778 79.4709 19.2978 79.4533 19.2267C79.4357 19.1378 79.418 19.0489 79.4004 18.96C79.2595 18.32 78.9601 17.84 78.5021 17.52C78.0442 17.1822 77.4541 17.0133 76.732 17.0133C76.2388 17.0133 75.7192 17.1022 75.1731 17.28C74.6447 17.4578 74.1251 17.7067 73.6143 18.0267C73.2444 18.2578 72.9186 18.0978 72.6368 17.5467L72.2669 16.7733L71.8706 16C71.8354 15.9289 71.8001 15.8578 71.7649 15.7867C71.7297 15.7156 71.7033 15.6444 71.6856 15.5733C71.6328 15.3067 71.7297 15.0756 71.9763 14.88C72.5927 14.3822 73.3589 13.9911 74.2749 13.7067C75.1908 13.4222 76.1507 13.28 77.1547 13.28C79.0041 13.28 80.4661 13.8222 81.5405 14.9067C82.6325 15.9911 83.1786 17.4844 83.1786 19.3867V27.2C83.1786 27.2889 83.1698 27.3689 83.1522 27.44C83.1345 27.5111 83.1169 27.5822 83.0993 27.6533C82.976 27.8844 82.7382 28 82.386 28ZM76.732 24.1867C77.0842 24.1867 77.4453 24.1422 77.8152 24.0533C78.1851 23.9467 78.5109 23.8044 78.7928 23.6267C79.0746 23.4489 79.2683 23.2267 79.374 22.96C79.4092 22.8889 79.4357 22.8178 79.4533 22.7467C79.4709 22.6578 79.4797 22.5689 79.4797 22.48V22.3733C79.0394 22.1956 78.5726 22.0622 78.0794 21.9733C77.6038 21.8844 77.1547 21.84 76.732 21.84C76.1331 21.84 75.6751 21.9378 75.3581 22.1333C75.0587 22.3289 74.9089 22.6222 74.9089 23.0133C74.9089 23.3867 75.0851 23.68 75.4374 23.8933C75.8072 24.0889 76.2388 24.1867 76.732 24.1867Z" fill="#0C0A09"/>
<path d="M87.5712 26.6667C87.5712 27.3778 87.2189 27.7333 86.5143 27.7333H84.9291C84.2246 27.7333 83.8723 27.3778 83.8723 26.6667V13.8667C83.8723 13.1556 84.2246 12.8 84.9291 12.8H86.5143C87.2189 12.8 87.5712 13.1556 87.5712 13.8667V15.8667C88.082 15.0844 88.7161 14.5067 89.4734 14.1333C90.2308 13.7422 90.9794 13.5467 91.7192 13.5467C93.005 13.5467 94.0706 13.9911 94.9161 14.88C95.7615 15.7511 96.1843 17.1556 96.1843 19.0933V26.1333C96.1843 26.8444 95.832 27.2 95.1274 27.2H93.5422C92.8377 27.2 92.4854 26.8444 92.4854 26.1333V20.2933C92.4854 19.3156 92.3004 18.5956 91.9306 18.1333C91.5783 17.6533 91.0851 17.4133 90.451 17.4133C89.8698 17.4133 89.359 17.5378 88.9186 17.7867C88.4959 18.0356 88.1612 18.4267 87.9146 18.96C87.6857 19.4756 87.5712 20.1422 87.5712 20.96V26.6667Z" fill="#0C0A09"/>
<path fill-rule="evenodd" clip-rule="evenodd" d="M96.9048 26.1333C96.9048 26.8444 97.2571 27.2 97.9616 27.2H99.5469C100.251 27.2 100.604 26.8444 100.604 26.1333V15.4667C100.604 14.7556 100.251 14.4 99.5469 14.4H97.9616C97.2571 14.4 96.9048 14.7556 96.9048 15.4667V26.1333Z" fill="#0C0A09"/>
<path d="M98.7543 12.56C98.1554 12.56 97.627 12.3378 97.169 11.8933C96.7287 11.4311 96.5085 10.8889 96.5085 10.2667C96.5085 9.64444 96.7287 9.11111 97.169 8.66667C97.627 8.22222 98.1554 8 98.7543 8C99.3707 8 99.8992 8.22222 100.339 8.66667C100.78 9.11111 101 9.64444 101 10.2667C101 10.8889 100.78 11.4311 100.339 11.8933C99.8992 12.3378 99.3707 12.56 98.7543 12.56Z" fill="#A3E635"/>
<defs>
<filter id="filter0_dd_28_3673" x="0" y="0" width="38" height="38" filterUnits="userSpaceOnUse" color-interpolation-filters="sRGB">
<feFlood flood-opacity="0" result="BackgroundImageFix"/>
<feColorMatrix in="SourceAlpha" type="matrix" values="0 0 0 0 0 0 0 0 0 0 0 0 0 0 0 0 0 0 127 0" result="hardAlpha"/>
<feOffset dy="1"/>
<feGaussianBlur stdDeviation="1"/>
<feColorMatrix type="matrix" values="0 0 0 0 0.0627451 0 0 0 0 0.0941176 0 0 0 0 0.156863 0 0 0 0.06 0"/>
<feBlend mode="normal" in2="BackgroundImageFix" result="effect1_dropShadow_28_3673"/>
<feColorMatrix in="SourceAlpha" type="matrix" values="0 0 0 0 0 0 0 0 0 0 0 0 0 0 0 0 0 0 127 0" result="hardAlpha"/>
<feOffset dy="1"/>
<feGaussianBlur stdDeviation="1.5"/>
<feColorMatrix type="matrix" values="0 0 0 0 0.0627451 0 0 0 0 0.0941176 0 0 0 0 0.156863 0 0 0 0.1 0"/>
<feBlend mode="normal" in2="effect1_dropShadow_28_3673" result="effect2_dropShadow_28_3673"/>
<feBlend mode="normal" in="SourceGraphic" in2="effect2_dropShadow_28_3673" result="shape"/>
</filter>
<clipPath id="clip0_28_3673">
<path d="M3 14.8C3 10.3196 3 8.07937 3.87195 6.36808C4.63893 4.86278 5.86278 3.63893 7.36808 2.87195C9.07937 2 11.3196 2 15.8 2H22.2C26.6804 2 28.9206 2 30.6319 2.87195C32.1372 3.63893 33.3611 4.86278 34.1281 6.36808C35 8.07937 35 10.3196 35 14.8V21.2C35 25.6804 35 27.9206 34.1281 29.6319C33.3611 31.1372 32.1372 32.3611 30.6319 33.1281C28.9206 34 26.6804 34 22.2 34H15.8C11.3196 34 9.07937 34 7.36808 33.1281C5.86278 32.3611 4.63893 31.1372 3.87195 29.6319C3 27.9206 3 25.6804 3 21.2V14.8Z" fill="white"/>
</clipPath>
</defs>
</svg>
