<svg width="38" height="38" viewBox="0 0 38 38" fill="none" xmlns="http://www.w3.org/2000/svg">
<g filter="url(#filter0_dd_28_3672)">
<g clip-path="url(#clip0_28_3672)">
<path d="M3 14.8C3 10.3196 3 8.07937 3.87195 6.36808C4.63893 4.86278 5.86278 3.63893 7.36808 2.87195C9.07937 2 11.3196 2 15.8 2H22.2C26.6804 2 28.9206 2 30.6319 2.87195C32.1372 3.63893 33.3611 4.86278 34.1281 6.36808C35 8.07937 35 10.3196 35 14.8V21.2C35 25.6804 35 27.9206 34.1281 29.6319C33.3611 31.1372 32.1372 32.3611 30.6319 33.1281C28.9206 34 26.6804 34 22.2 34H15.8C11.3196 34 9.07937 34 7.36808 33.1281C5.86278 32.3611 4.63893 31.1372 3.87195 29.6319C3 27.9206 3 25.6804 3 21.2V14.8Z" fill="#4D7C0F"/>
<path fill-rule="evenodd" clip-rule="evenodd" d="M3.00032 6.00001C3.00032 3.79088 4.79118 2.00001 7.00032 2.00001C7.00032 2.00001 8.00098 1.99998 11.0003 2.00001C13.9997 2.00004 16.4998 14.5 16 16C15.5002 17.5 3.00062 26.5 3.00032 26C3.00001 25.5 3.00032 18 3.00032 18V14V10V6.00001ZM19.0003 23.3333C17.0003 22 7.00005 31 5.50018 32.5C4.00032 34 3.00032 34 3.00032 34H7.00032H11.0003H15.0003H19.0003C19.0003 34 21.001 34 23.0003 34C24.9997 34 21.0003 24.6667 19.0003 23.3333ZM31.0003 34C33.2095 34 35.0003 32.2092 35.0003 30V26V22V18V14V10V6.00001C35.0003 3.79087 33.2095 2.00001 31.0003 2.00001H27.0003H23.0003H18.5002C19.5002 5 23.5001 13.5 24.0002 16C24.5003 18.5 28.3292 34 31.0003 34Z" fill="#A3E635"/>
</g>
</g>
<defs>
<filter id="filter0_dd_28_3672" x="0" y="0" width="38" height="38" filterUnits="userSpaceOnUse" color-interpolation-filters="sRGB">
<feFlood flood-opacity="0" result="BackgroundImageFix"/>
<feColorMatrix in="SourceAlpha" type="matrix" values="0 0 0 0 0 0 0 0 0 0 0 0 0 0 0 0 0 0 127 0" result="hardAlpha"/>
<feOffset dy="1"/>
<feGaussianBlur stdDeviation="1"/>
<feColorMatrix type="matrix" values="0 0 0 0 0.0627451 0 0 0 0 0.0941176 0 0 0 0 0.156863 0 0 0 0.06 0"/>
<feBlend mode="normal" in2="BackgroundImageFix" result="effect1_dropShadow_28_3672"/>
<feColorMatrix in="SourceAlpha" type="matrix" values="0 0 0 0 0 0 0 0 0 0 0 0 0 0 0 0 0 0 127 0" result="hardAlpha"/>
<feOffset dy="1"/>
<feGaussianBlur stdDeviation="1.5"/>
<feColorMatrix type="matrix" values="0 0 0 0 0.0627451 0 0 0 0 0.0941176 0 0 0 0 0.156863 0 0 0 0.1 0"/>
<feBlend mode="normal" in2="effect1_dropShadow_28_3672" result="effect2_dropShadow_28_3672"/>
<feBlend mode="normal" in="SourceGraphic" in2="effect2_dropShadow_28_3672" result="shape"/>
</filter>
<clipPath id="clip0_28_3672">
<path d="M3 14.8C3 10.3196 3 8.07937 3.87195 6.36808C4.63893 4.86278 5.86278 3.63893 7.36808 2.87195C9.07937 2 11.3196 2 15.8 2H22.2C26.6804 2 28.9206 2 30.6319 2.87195C32.1372 3.63893 33.3611 4.86278 34.1281 6.36808C35 8.07937 35 10.3196 35 14.8V21.2C35 25.6804 35 27.9206 34.1281 29.6319C33.3611 31.1372 32.1372 32.3611 30.6319 33.1281C28.9206 34 26.6804 34 22.2 34H15.8C11.3196 34 9.07937 34 7.36808 33.1281C5.86278 32.3611 4.63893 31.1372 3.87195 29.6319C3 27.9206 3 25.6804 3 21.2V14.8Z" fill="white"/>
</clipPath>
</defs>
</svg>
